<svg width="40" height="40" viewBox="0 0 40 40" fill="none" xmlns="http://www.w3.org/2000/svg">
<rect width="40" height="40" rx="20" fill="white"/>
<path fill-rule="evenodd" clip-rule="evenodd" d="M32.3399 20.2956C32.3399 19.3737 32.2571 18.4874 32.1035 17.6365H19.8599V22.6651H26.8562C26.5549 24.2901 25.639 25.6669 24.2621 26.5887V29.8506H28.4635C30.9217 27.5874 32.3399 24.2547 32.3399 20.2956Z" fill="#161820"/>
<path fill-rule="evenodd" clip-rule="evenodd" d="M19.8599 33C23.3699 33 26.3127 31.8359 28.4636 29.8504L24.2622 26.5886C23.0981 27.3686 21.609 27.8295 19.8599 27.8295C16.474 27.8295 13.6081 25.5427 12.5859 22.47H8.24268V25.8382C10.3818 30.0868 14.7781 33 19.8599 33Z" fill="#161820"/>
<path fill-rule="evenodd" clip-rule="evenodd" d="M12.5858 22.47C12.3258 21.69 12.178 20.8569 12.178 20C12.178 19.1432 12.3258 18.31 12.5858 17.53V14.1619H8.24259C7.36214 15.9169 6.85986 17.9023 6.85986 20C6.85986 22.0978 7.36214 24.0832 8.24259 25.8382L12.5858 22.47Z" fill="#161820"/>
<path fill-rule="evenodd" clip-rule="evenodd" d="M19.8599 12.1705C21.7686 12.1705 23.4822 12.8264 24.8295 14.1145L28.5581 10.3859C26.3068 8.28818 23.364 7 19.8599 7C14.7781 7 10.3818 9.91318 8.24268 14.1618L12.5859 17.53C13.6081 14.4573 16.474 12.1705 19.8599 12.1705Z" fill="#161820"/>
</svg>
