<svg width="40" height="40" viewBox="0 0 40 40" fill="none" xmlns="http://www.w3.org/2000/svg">
<rect width="40" height="40" rx="20" fill="white"/>
<path d="M7.86816 31.6335L9.58305 25.4062C8.52283 23.5784 7.96665 21.5084 7.97245 19.3923C7.97245 12.7613 13.3952 7.37012 20.052 7.37012C23.2848 7.37012 26.3206 8.62134 28.5975 10.8932C30.8801 13.165 32.1373 16.1864 32.1315 19.398C32.1315 26.0289 26.7088 31.4202 20.0462 31.4202H20.0404C18.0185 31.4202 16.0313 30.9128 14.2642 29.9556L7.86816 31.6335ZM14.5713 27.7818L14.9363 28.0009C16.4774 28.9119 18.2444 29.3905 20.0462 29.3963H20.052C25.5848 29.3963 30.0922 24.9161 30.0922 19.4038C30.0922 16.7341 29.0494 14.2259 27.1549 12.3347C25.2604 10.4434 22.7344 9.40552 20.052 9.40552C14.5192 9.39975 10.0118 13.8799 10.0118 19.3923C10.0118 21.2777 10.539 23.1171 11.5471 24.7085L11.7846 25.0891L10.7707 28.7736L14.5713 27.7818Z" fill="#161820"/>
<path d="M8.29114 31.2126L9.94809 25.1986C8.92263 23.44 8.38383 21.4392 8.38383 19.398C8.38963 12.9977 13.6212 7.79102 20.052 7.79102C23.1748 7.79102 26.1005 9.00188 28.302 11.193C30.5036 13.3841 31.7144 16.3017 31.7144 19.4038C31.7144 25.804 26.4771 31.0108 20.052 31.0108H20.0462C18.0938 31.0108 16.1762 30.5206 14.4729 29.5981L8.29114 31.2126Z" fill="white"/>
<path d="M7.86816 31.6335L9.58305 25.4062C8.52283 23.5784 7.96665 21.5084 7.97245 19.3923C7.97245 12.7613 13.3952 7.37012 20.052 7.37012C23.2848 7.37012 26.3206 8.62134 28.5975 10.8932C30.8801 13.165 32.1373 16.1864 32.1315 19.398C32.1315 26.0289 26.7088 31.4202 20.0462 31.4202H20.0404C18.0185 31.4202 16.0313 30.9128 14.2642 29.9556L7.86816 31.6335ZM14.5713 27.7818L14.9363 28.0009C16.4774 28.9119 18.2444 29.3905 20.0462 29.3963H20.052C25.5848 29.3963 30.0922 24.9161 30.0922 19.4038C30.0922 16.7341 29.0494 14.2259 27.1549 12.3347C25.2604 10.4434 22.7344 9.40552 20.052 9.40552C14.5192 9.39975 10.0118 13.8799 10.0118 19.3923C10.0118 21.2777 10.539 23.1171 11.5471 24.7085L11.7846 25.0891L10.7707 28.7736L14.5713 27.7818Z" fill="#161820"/>
<path fill-rule="evenodd" clip-rule="evenodd" d="M17.0334 14.3643C16.8075 13.8627 16.5699 13.8511 16.3556 13.8454C16.1818 13.8396 15.979 13.8396 15.7762 13.8396C15.5735 13.8396 15.249 13.9146 14.9709 14.2144C14.6928 14.5142 13.9165 15.2407 13.9165 16.7226C13.9165 18.1987 14.9999 19.6287 15.1505 19.8305C15.3012 20.0323 17.242 23.1632 20.3068 24.3683C22.8559 25.3716 23.3774 25.1698 23.9278 25.1179C24.4781 25.066 25.7122 24.3914 25.9671 23.688C26.2162 22.9845 26.2162 22.3848 26.1409 22.258C26.0656 22.1311 25.8628 22.0562 25.5615 21.9063C25.2603 21.7563 23.7771 21.0298 23.499 20.926C23.2209 20.828 23.0182 20.7761 22.8212 21.0759C22.6184 21.3758 22.0391 22.0504 21.8652 22.2522C21.6914 22.454 21.5118 22.4771 21.2106 22.3272C20.9093 22.1773 19.936 21.8601 18.7831 20.8338C17.8851 20.0381 17.2768 19.0521 17.103 18.7522C16.9291 18.4524 17.0856 18.291 17.2362 18.141C17.3695 18.0084 17.5375 17.7893 17.6881 17.6163C17.8387 17.4434 17.8909 17.3165 17.9894 17.1147C18.0879 16.9129 18.0415 16.7399 17.9662 16.59C17.8909 16.4458 17.2999 14.9582 17.0334 14.3643Z" fill="#161820"/>
</svg>
